<svg version="1.1" xmlns="http://www.w3.org/2000/svg" xmlns:xlink="http://www.w3.org/1999/xlink" width="530" height="262" viewBox="0,0,256,126.54688"><g fill="#f4b73e" fill-rule="evenodd" stroke="none" stroke-width="1" stroke-linecap="butt" stroke-linejoin="miter" stroke-miterlimit="10" stroke-dasharray="" stroke-dashoffset="0" font-family="none" font-weight="none" font-size="none" text-anchor="none" style="mix-blend-mode: normal"><g transform="translate(-0.02757,0.0797) scale(0.48302,0.48302)"><path d="M294.448,1.829c-5.179,2.424 -20.059,14.896 -28.7,24.056c-4.923,5.217 -7.863,9.545 -11.113,16.355c-5.342,11.195 -6.635,16.3 -6.635,26.203c0,4.156 -0.338,7.555 -0.75,7.553c-0.412,-0.002 -2.284,-0.938 -4.158,-2.081c-5.114,-3.118 -16.592,-5.703 -31.271,-7.044c-13.136,-1.2 -13.136,-1.2 -15.099,1.214c-1.752,2.157 -1.891,3.369 -1.294,11.33c1.227,16.353 5.227,32.703 10.909,44.585c2.12,4.432 5.503,8.917 10.636,14.098c9.308,9.396 15.084,11.96 28.527,12.666c12.312,0.647 12.91,1.045 12.169,8.092c-0.327,3.104 -1.998,11.21 -3.712,18.014c-2.054,8.149 -2.781,12.706 -2.13,13.357c1.458,1.458 7.772,-0.902 10.003,-3.738c1.023,-1.301 4.435,-9.993 7.583,-19.316c7.501,-22.223 8.24,-22.907 26.058,-24.13c16.842,-1.156 18.833,-2.305 39.353,-22.717c17.683,-17.589 21.37,-22.688 23.1,-31.947c1.488,-7.966 -0.693,-11.433 -2.79,-4.434c-1.456,4.86 -10.784,15.403 -12.907,14.588c-0.814,-0.312 -2.079,-0.071 -2.81,0.536c-0.731,0.607 -1.836,0.79 -2.454,0.408c-0.619,-0.383 -2.39,0.516 -3.935,1.996c-1.868,1.79 -3.043,2.312 -3.507,1.56c-0.5,-0.807 -1.068,-0.824 -1.989,-0.059c-0.983,0.816 -1.401,0.489 -1.757,-1.372c-0.415,-2.171 0.016,-2.564 3.882,-3.537c8.003,-2.015 14.81,-4.997 18.663,-8.175c5.001,-4.125 3.479,-6.098 -1.958,-2.538c-2.124,1.391 -7.237,3.444 -11.362,4.563c-36.18,9.809 -39.741,11.146 -46.887,17.602c-5.11,4.617 -9.615,13.386 -11.446,22.283c-0.826,4.015 -2.219,8.393 -3.094,9.729c-1.812,2.766 -8.27,6.602 -7.275,4.322c6.448,-14.785 8.04,-22.387 6.688,-31.948c-0.53,-3.752 -0.512,-6.921 0.046,-7.964c0.513,-0.957 3.954,-2.654 7.698,-3.794c14.259,-4.342 26.921,-14.624 32.812,-26.645c6.217,-12.684 6.707,-24.74 2.215,-54.475c-1.881,-12.447 -2.551,-14.882 -4.782,-17.379c-3.419,-3.826 -10.557,-4.612 -16.527,-1.817M299.231,6.331c-1.248,0.693 -3.666,2.954 -5.372,5.024c-3.102,3.764 -3.102,3.764 0.269,1.708c3.868,-2.358 10.086,-2.715 11.778,-0.676c1.576,1.899 7.075,17.15 7.173,19.892c0.043,1.221 0.296,1.687 0.562,1.035c0.869,-2.133 -3.675,-24.694 -5.345,-26.539c-1.862,-2.058 -5.811,-2.251 -9.065,-0.444M298.306,16.645c-0.646,1.685 1.977,4.355 4.278,4.355c1.768,0 2.629,-3.039 1.311,-4.627c-1.565,-1.885 -4.822,-1.727 -5.589,0.272M285.141,22.603c-6.604,8.993 -19.827,34.095 -21.653,41.103c-2.95,11.326 -1.486,23.434 4.189,34.64c2.325,4.591 2.55,4.759 4.281,3.192c1.005,-0.909 3.113,-2.039 4.685,-2.51c2.703,-0.81 2.636,-0.861 -1.238,-0.942c-3.734,-0.078 -7.405,-2.287 -7.405,-4.455c0,-0.392 -0.893,-1.931 -1.983,-3.421c-1.738,-2.374 -1.937,-3.951 -1.605,-12.71c0.429,-11.331 1.997,-19.857 4.309,-23.441c0.866,-1.342 3.907,-6.742 6.758,-12c2.851,-5.257 7.514,-13.271 10.363,-17.809c2.849,-4.538 4.948,-8.25 4.664,-8.25c-0.284,0 -2.698,2.971 -5.365,6.603M293.667,17.667c-1.038,1.037 -0.784,4.333 0.333,4.333c0.55,0 1,-1.125 1,-2.5c0,-2.618 -0.231,-2.936 -1.333,-1.833M288.688,24.646c-1.374,1.374 -0.662,3.496 1.062,3.164c0.962,-0.186 1.75,-0.969 1.75,-1.74c0,-1.579 -1.764,-2.472 -2.812,-1.424M294.761,27.374c-1.609,3.375 -1.609,3.375 2.61,3.953c2.321,0.318 4.987,0.873 5.924,1.233c2.492,0.956 2.269,-3.996 -0.295,-6.56c-3.119,-3.119 -6.353,-2.58 -8.239,1.374M307.353,25.332c0.356,1.007 0.647,2.47 0.647,3.25c0,0.78 0.48,1.418 1.067,1.418c1.227,0 0.273,-3.954 -1.327,-5.5c-0.705,-0.682 -0.829,-0.418 -0.387,0.832M283.486,32.044c-0.822,2.59 0.75,4.463 3.017,3.593c2.105,-0.808 1.59,-5.004 -0.668,-5.434c-0.998,-0.19 -1.938,0.546 -2.349,1.841M307.056,35.433c-1.083,1.305 -0.475,4.567 0.851,4.567c1.116,0 3.093,-2.296 3.093,-3.593c0,-1.8 -2.704,-2.468 -3.944,-0.974M291.011,36.487c-0.679,0.818 -0.986,2.137 -0.681,2.93c0.599,1.562 8.685,3.175 11.158,2.226c1.997,-0.767 1.946,-5.263 -0.07,-6.036c-2.976,-1.142 -9.163,-0.619 -10.407,0.88M313.75,40.875c-0.413,1.856 -0.75,6.222 -0.75,9.701c0,8.135 -1.893,15.276 -6.447,24.319c-2.738,5.438 -4.348,7.486 -6.462,8.223c-1.549,0.54 -3.318,2.084 -3.932,3.432c-0.614,1.347 -1.545,2.45 -2.069,2.45c-0.525,0 -1.969,1.425 -3.209,3.167c-2.255,3.167 -2.255,3.167 1.044,1.25c9.557,-5.554 17.319,-15.268 21.05,-26.342c1.735,-5.151 2.04,-8.17 1.806,-17.886c-0.194,-8.09 -0.512,-10.65 -1.031,-8.314M280.475,40.041c-0.808,1.307 1.3,3.959 3.147,3.959c2.056,0 1.663,-2.777 -0.561,-3.968c-1.344,-0.719 -2.138,-0.716 -2.586,0.009M305.861,44.935c-2.235,1.832 -2.269,2.03 -0.642,3.684c1.636,1.663 1.817,1.659 3.75,-0.091c2.318,-2.098 2.716,-5.528 0.642,-5.528c-0.764,0 -2.452,0.871 -3.75,1.935M287.75,44.572c-2.919,2.964 1.558,7.428 7.449,7.428c2.922,0 4.126,-0.566 5.427,-2.551c0.984,-1.502 1.302,-2.914 0.773,-3.432c-1.212,-1.186 -12.705,-2.404 -13.649,-1.445M276.701,46.632c-0.385,0.386 -0.701,1.751 -0.701,3.035c0,1.838 0.544,2.333 2.566,2.333c2.208,0 2.523,-0.383 2.25,-2.741c-0.302,-2.621 -2.633,-4.109 -4.115,-2.627M283.736,54.244c-0.76,1.981 0.199,3.187 4.135,5.205c5.285,2.709 11.129,0.926 11.129,-3.395c0,-0.43 -1.913,-1.051 -4.25,-1.379c-2.337,-0.328 -5.648,-0.882 -7.356,-1.232c-2.223,-0.455 -3.263,-0.227 -3.658,0.801M304.18,54.045c-3.099,1.259 -2.66,5.316 0.625,5.782c2.988,0.423 5.371,-1.596 4.993,-4.229c-0.341,-2.378 -2.272,-2.912 -5.618,-1.553M272.411,55.145c-0.36,0.581 0.256,1.966 1.367,3.077c2.41,2.41 4.723,1.582 3.252,-1.165c-1.214,-2.269 -3.75,-3.319 -4.619,-1.912M269.496,62.007c-0.741,1.198 3.063,4.993 5.004,4.993c1.819,0 1.979,-2.384 0.25,-3.722c-2.098,-1.623 -4.654,-2.242 -5.254,-1.271M280,62.385c0,3.06 8.942,6.92 12.759,5.508c3.114,-1.151 2.816,-3.737 -0.509,-4.419c-1.512,-0.311 -4.377,-0.994 -6.366,-1.519c-4.854,-1.282 -5.884,-1.206 -5.884,0.43M299.444,64.091c-0.721,1.167 2.752,4.909 4.556,4.909c1.191,0 5.568,-3.764 5,-4.3c-1.361,-1.284 -8.844,-1.761 -9.556,-0.609M267.667,69.667c-1.368,1.367 -0.598,4.3 1.411,5.375c4.234,2.266 6.653,-1.166 3.093,-4.387c-1.941,-1.757 -3.413,-2.08 -4.504,-0.988M278.349,70.534c-1.642,4.279 9.406,7.568 13.08,3.895c2.37,-2.371 1.936,-3.112 -2.179,-3.72c-2.062,-0.305 -5.206,-0.869 -6.985,-1.254c-2.583,-0.558 -3.372,-0.341 -3.916,1.079M198.71,72c-1.737,6.642 6.196,43.274 11.548,53.326c3.771,7.084 8.984,11.743 18.242,16.305c7,3.449 7,3.449 3,0.212c-9.366,-7.582 -18.416,-19.363 -20.052,-26.104c-1.214,-5.003 2.302,-2.046 5.172,4.349c2.929,6.526 9.63,13.468 16.272,16.857c6.321,3.225 19.295,8.055 21.635,8.055c2.503,0 4.492,1.788 3.849,3.462c-0.257,0.67 0.178,1.753 0.966,2.407c1.189,0.987 1.502,0.59 1.844,-2.34c0.248,-2.124 -0.02,-3.529 -0.673,-3.529c-0.597,0 -2.178,-3.15 -3.513,-7c-1.335,-3.85 -2.694,-7 -3.021,-7c-0.326,0 -1.064,1.238 -1.64,2.75c-1.235,3.244 -1.602,2.54 -3.382,-6.5c-0.676,-3.437 -1.745,-6.25 -2.374,-6.25c-0.63,0 -1.654,-1.35 -2.277,-3c-0.854,-2.262 -1.765,-3 -3.705,-3c-2.213,0 -2.73,-0.627 -3.702,-4.488c-0.622,-2.468 -1.485,-4.268 -1.919,-4c-0.434,0.269 -2.13,-1.887 -3.768,-4.79c-2.786,-4.938 -7.386,-9.813 -13.221,-14.016c-2.491,-1.794 -2.491,-1.794 0.448,-1.184c1.616,0.336 4.23,1.53 5.808,2.654c3.288,2.341 3.845,2.181 2.721,-0.784c-0.476,-1.256 -2.028,-2.354 -3.84,-2.716c-1.991,-0.399 -3.56,-1.61 -4.541,-3.508c-1.487,-2.875 -5.539,-5.379 -10.846,-6.702c-1.518,-0.378 -3.038,-1.138 -3.379,-1.689c-0.67,-1.085 1.599,-2.919 2.74,-2.214c0.384,0.237 5.281,1.514 10.882,2.838c10.184,2.407 10.184,2.407 8.094,0.182c-1.627,-1.731 -4.053,-2.486 -10.947,-3.404c-12.962,-1.725 -15.792,-1.584 -16.421,0.821M297.5,72.941c-1.771,0.748 -1.809,0.922 -0.334,1.526c2.254,0.923 6.896,0.272 6.896,-0.967c0,-1.3 -4.001,-1.64 -6.562,-0.559M231,77.536c0,0.294 2.137,1.451 4.749,2.571c2.612,1.119 6.212,3.151 8,4.515c1.788,1.364 3.251,2.077 3.251,1.584c0,-1.595 -3.369,-3.973 -9.374,-6.619c-6.289,-2.769 -6.626,-2.874 -6.626,-2.051M275.649,78.471c-1.166,3.039 5.017,6.405 9.279,5.052c3.802,-1.207 2.498,-4.178 -2.371,-5.404c-5.717,-1.44 -6.23,-1.414 -6.908,0.352M293.377,78.461c-0.961,2.503 0.716,3.372 4.509,2.336c3.681,-1.005 3.26,-2.249 -1.127,-3.332c-2.06,-0.509 -2.9,-0.262 -3.382,0.996M268.218,81.154c0.519,1.558 2.756,1.83 2.835,0.346c0.029,-0.55 -0.698,-1.155 -1.615,-1.346c-1.043,-0.215 -1.5,0.159 -1.22,1M204,84.032c0,2.428 3.23,8.292 11.432,20.75c8.294,12.6 9.454,13.877 22.684,24.998c7.668,6.446 14.379,11.87 14.913,12.053c2.49,0.855 0.472,-2.361 -4.509,-7.185c-3.014,-2.919 -6.163,-6.943 -6.998,-8.942c-0.835,-1.999 -2.532,-4.145 -3.77,-4.771c-2.537,-1.281 -5.895,-4.886 -12.048,-12.935c-2.312,-3.025 -4.727,-5.95 -5.367,-6.5c-2.116,-1.82 -11.532,-13.959 -12.605,-16.25c-1.06,-2.266 -3.732,-3.137 -3.732,-1.218M288.496,85.007c-0.795,1.285 2.014,2.395 4.067,1.607c2.004,-0.769 0.901,-2.614 -1.563,-2.614c-1.035,0 -2.162,0.453 -2.504,1.007M273,86.016c0,1.376 6.784,4.534 7.723,3.595c0.971,-0.971 -3.7,-4.56 -5.973,-4.589c-0.962,-0.012 -1.75,0.435 -1.75,0.994M253.607,93.616c2.222,2.814 4.617,6.639 5.322,8.5c0.705,1.861 2.67,6.231 4.366,9.712c3.083,6.328 3.083,6.328 1.842,14.912c-1.065,7.369 -1.033,8.792 0.228,10.053c1.292,1.292 1.598,1.001 2.546,-2.412c0.593,-2.135 1.08,-7.301 1.083,-11.48c0.005,-6.826 -0.366,-8.302 -3.648,-14.5c-2.009,-3.796 -4.484,-7.489 -5.5,-8.208c-1.015,-0.718 -1.846,-2.143 -1.846,-3.166c0,-1.022 -1.897,-3.359 -4.217,-5.193c-4.216,-3.334 -4.216,-3.334 -0.176,1.782M284,89.893c0,1.109 3.076,2.364 3.864,1.576c0.318,-0.318 -0.084,-0.996 -0.893,-1.508c-1.87,-1.183 -2.971,-1.208 -2.971,-0.068M230.679,91.71c-0.279,0.452 4.899,6.439 11.507,13.306c12.576,13.068 15.401,17.22 17.338,25.484c1.172,5 1.172,5 1.928,0.657c1.101,-6.332 -0.239,-15.319 -2.523,-16.919c-1.029,-0.721 -2.399,-3.075 -3.045,-5.231c-1.044,-3.484 -1.396,-3.803 -3.157,-2.861c-2.189,1.172 -3.684,-0.196 -3.712,-3.396c-0.012,-1.46 -2.116,-2.399 -3.361,-1.5c-0.909,0.656 -3.665,-2.739 -3.754,-4.622c-0.089,-1.902 -0.181,-1.863 -0.865,0.372c-0.763,2.492 -0.77,2.488 -2.311,-0.99c-1.545,-3.489 -1.545,-3.489 -1.934,-0.5c-0.39,2.99 -0.39,2.99 -1.403,-0.508c-0.952,-3.286 -3.577,-5.121 -4.708,-3.292M271.55,91.919c-0.731,1.183 2.148,4.081 4.053,4.081c2.034,0 2.987,-3.013 1.293,-4.086c-1.828,-1.157 -4.629,-1.154 -5.346,0.005M83.286,100.945c-23.622,6.373 -44.955,21.679 -52.533,37.692c-5.654,11.946 -4.171,23.923 3.905,31.544c1.563,1.475 10.942,8.036 20.842,14.58c9.9,6.544 19.89,13.966 22.2,16.492c9.979,10.914 8.931,24.62 -2.686,35.115c-8.254,7.457 -17.606,10.706 -30.88,10.727c-10.442,0.017 -19.569,-1.912 -28.752,-6.076c-3.662,-1.66 -7.265,-3.019 -8.006,-3.019c-1.781,0 -7.578,11.57 -7.184,14.337c0.686,4.816 22.753,8.56 39.47,6.695c13.254,-1.477 20.423,-3.47 29.557,-8.213c10.045,-5.218 19.099,-14.636 24.423,-25.408c3.442,-6.967 3.828,-8.524 3.795,-15.333c-0.026,-5.625 -0.608,-8.846 -2.255,-12.498c-3.939,-8.731 -8.538,-13.101 -25.527,-24.255c-25.933,-17.027 -28.361,-19.625 -27.426,-29.353c0.949,-9.876 11.044,-20.356 27.624,-28.677c13.923,-6.988 31.454,-9.417 35.896,-4.974c5.558,5.558 -2.499,18.849 -20.235,33.38c-4.985,4.085 -4.985,4.085 1.648,7.356c6.041,2.979 6.906,3.157 9.7,2c4.346,-1.8 18.489,-16.87 21.792,-23.22c2.314,-4.449 2.782,-6.613 2.811,-13.004c0.031,-6.822 -0.24,-7.962 -2.465,-10.347c-4.638,-4.973 -9.68,-6.827 -19.5,-7.172c-6.591,-0.231 -10.931,0.206 -16.214,1.631M311.045,103.561c-19.084,6.438 -25.123,11.477 -29.07,24.256c-1.102,3.568 -1.793,6.698 -1.535,6.956c0.258,0.258 1.482,-1.617 2.721,-4.167c1.238,-2.549 2.71,-4.482 3.27,-4.296c0.559,0.187 2.023,-2.134 3.252,-5.158c1.229,-3.024 2.982,-6.208 3.896,-7.075c1.53,-1.452 1.626,-1.37 1.206,1.036c-0.643,3.69 2.381,2.735 5.405,-1.707c2.391,-3.512 4.308,-4.321 5.102,-2.156c0.277,0.756 1.966,-0.481 4.274,-3.132c2.768,-3.179 3.969,-3.982 4.375,-2.925c0.437,1.139 1.504,0.731 4.887,-1.868c2.38,-1.829 3.955,-3.317 3.5,-3.308c-0.456,0.01 -5.533,1.604 -11.283,3.544M344.169,103.375c-3.393,2.504 -10.055,5.121 -21.694,8.523c-3.864,1.129 -7.914,2.725 -9,3.546c-1.922,1.452 -1.908,1.493 0.525,1.521c1.375,0.015 6.453,-1.029 11.284,-2.321c9.756,-2.609 11.073,-1.631 3.171,2.356c-4.099,2.068 -6.54,2.528 -14.131,2.665c-10.034,0.179 -13.36,1.508 -21.807,8.708c-3.983,3.396 -3.983,3.396 2.5,1.951c14.08,-3.137 19.139,-4.638 25.029,-7.423c3.373,-1.596 6.813,-2.901 7.644,-2.901c1.767,0 15.49,-12.04 18.431,-16.17c2.453,-3.445 2.185,-3.507 -1.952,-0.455M323.557,124.907c-1.445,2.338 -15.758,7.077 -24.641,8.159c-11.336,1.38 -14.328,2.388 -16.381,5.521c-1.563,2.385 -1.563,2.385 4.701,1.843c18.191,-1.574 26.24,-4.362 34.479,-11.947c2.632,-2.422 4.249,-4.421 3.594,-4.443c-0.655,-0.022 -1.443,0.368 -1.752,0.867M364.335,125.363c-11.847,3.01 -23.717,11.151 -38.546,26.437c-15.563,16.044 -26.344,34.095 -33.865,56.7c-2.978,8.952 -3.331,11.205 -3.368,21.5c-0.037,9.932 0.271,12.182 2.255,16.5c3.01,6.553 6.288,9.851 12.557,12.631c7.136,3.166 19.732,3.161 27.839,-0.01c9.261,-3.623 20.694,-11.724 29.948,-21.221c8.656,-8.882 8.656,-8.882 9.77,-5.684c1.937,5.556 4.829,7.784 10.106,7.784c3.786,0 5.535,-0.651 9.143,-3.407c4.461,-3.406 4.461,-3.406 7.504,0c2.415,2.705 3.799,3.407 6.714,3.407c4.491,0 9.768,-2.115 13.854,-5.553c3.067,-2.581 3.067,-2.581 5.013,0.493c1.965,3.103 5.054,4.53 8.412,3.886c1.414,-0.271 1.963,-1.595 2.421,-5.838c0.326,-3.018 1.609,-7.738 2.852,-10.488c2.21,-4.891 2.282,-4.945 3.311,-2.5c6.465,15.369 8.393,18.004 13.169,17.993c3.812,-0.008 7.213,-2.198 12.283,-7.912c3.921,-4.42 3.921,-4.42 5.926,-0.5c1.18,2.308 3.415,4.638 5.436,5.667c4.656,2.373 15.125,2.307 20.431,-0.128c9.723,-4.461 20.669,-16.69 27.938,-31.211c4.535,-9.059 5.534,-13.19 3.495,-14.45c-1.334,-0.825 -2.476,0.736 -9.107,12.454c-6.181,10.923 -16.93,22.991 -23.17,26.011c-8.358,4.046 -13.656,2.115 -13.656,-4.976c0,-3.456 0.319,-3.978 2.75,-4.498c9.911,-2.121 20.357,-8.876 25.326,-16.379c2.57,-3.879 2.967,-5.334 2.717,-9.955c-0.384,-7.095 -2.979,-9.259 -11.103,-9.259c-4.447,0 -6.933,0.688 -11.737,3.249c-7.996,4.262 -12.533,9.6 -18.791,22.111c-3.372,6.742 -7.179,12.519 -11.054,16.777c-5.788,6.359 -5.953,6.456 -7.913,4.683c-2.496,-2.26 -6.811,-13.505 -5.588,-14.566c0.491,-0.427 3.35,-1.315 6.354,-1.975c11.586,-2.543 20.039,-11.105 20.039,-20.3c0,-3.398 -0.562,-5.015 -2.314,-6.662c-3.024,-2.84 -9.03,-2.871 -13.624,-0.071c-3.438,2.097 -3.438,2.097 -1.74,-0.253c8.425,-11.652 10.678,-17.744 10.678,-28.87c0,-7.236 -0.254,-8.325 -2.455,-10.525c-3.418,-3.419 -10.623,-3.468 -13.996,-0.095c-1.679,1.679 -5.415,11.64 -12.96,34.556c-10.963,33.3 -12.867,37.486 -21.411,47.084c-3.122,3.506 -4.277,4.237 -5.231,3.311c-0.962,-0.934 0.221,-4.48 5.506,-16.5c6.731,-15.311 6.731,-15.311 4.389,-19.652c-3.016,-5.591 -6.403,-7.961 -13.164,-9.211c-6.331,-1.17 -13.288,0.03 -18.367,3.169c-4.774,2.95 -10.713,10.114 -13.804,16.65c-8.327,17.611 -27.132,37.396 -42.311,44.515c-8.024,3.764 -17.35,4.724 -22.088,2.274c-9.256,-4.787 -9.64,-26.922 -0.842,-48.556c10.852,-26.687 37.085,-59.632 54.185,-68.05c8.617,-4.243 13.874,-4.436 17.148,-0.63c3.382,3.932 3.395,14.851 0.028,24.126c-6.565,18.087 -22.736,35.104 -30.149,31.726c-2.807,-1.279 -3.705,-5.024 -3.276,-13.672c0.273,-5.491 0.115,-6.026 -1.856,-6.307c-2.702,-0.385 -4.488,4.38 -4.558,12.162c-0.099,11.002 3.487,16.252 10.904,15.964c18.418,-0.712 38.877,-29.912 39.608,-56.529c0.233,-8.478 -1.762,-12.988 -7.131,-16.123c-4.147,-2.422 -14.003,-3.039 -20.834,-1.304M456.599,168.145c-2.553,7.23 -4.447,13.341 -4.208,13.579c0.933,0.933 5.613,-8.592 7.001,-14.249c4.073,-16.596 3.232,-16.395 -2.793,0.67M215.038,192.727c-1.904,0.975 -5.861,4.613 -8.792,8.084c-5.331,6.311 -5.331,6.311 -4.695,1.5c0.532,-4.019 0.28,-5.264 -1.53,-7.561c-3.874,-4.918 -10.686,-3.409 -18.319,4.057c-4.798,4.693 -4.798,4.693 -3.188,0.826c0.886,-2.126 1.381,-4.464 1.101,-5.195c-0.86,-2.24 -6.996,-2.81 -10.537,-0.978c-3.759,1.943 -4.209,2.914 -7.677,16.54c-3.346,13.15 -5.258,16.95 -12.178,24.205c-9.276,9.725 -9.462,7.894 -1.17,-11.493c4.075,-9.526 5.865,-14.904 5.475,-16.457c-0.944,-3.761 -7.387,-10.122 -11.376,-11.23c-14.571,-4.047 -27.724,3.443 -35.759,20.363c-6.396,13.467 -6.562,25.37 -0.431,30.862c4.52,4.05 9.412,3.772 15.504,-0.879c4.753,-3.63 4.753,-3.63 6.893,-1.032c1.178,1.429 3.318,3.028 4.756,3.553c3.771,1.378 10.679,-0.429 15.076,-3.942c4.335,-3.464 4.809,-3.57 4.809,-1.072c0,3.075 2.453,4.254 8.169,3.927c5.331,-0.305 5.331,-0.305 5.947,-5.305c1.509,-12.245 16.854,-40.491 20.704,-38.111c0.499,0.308 -1.533,9.456 -4.517,20.328c-5.424,19.766 -5.424,19.766 -3.253,21.525c2.202,1.783 7.521,2.335 9.574,0.993c0.619,-0.404 1.462,-2.287 1.874,-4.184c1.606,-7.398 11.399,-27.425 16.896,-34.551c2.33,-3.021 1.952,-1.071 -2.029,10.457c-4.681,13.558 -5.431,21.467 -2.399,25.293c1.817,2.293 2.951,2.75 6.83,2.75c4.393,0 4.973,-0.339 10.471,-6.117c6.505,-6.836 12.364,-16.277 18.125,-29.205c3.171,-7.117 3.638,-8.937 2.612,-10.173c-0.687,-0.828 -1.618,-1.505 -2.069,-1.505c-0.451,0 -3.78,5.738 -7.397,12.75c-8.646,16.759 -18.538,30.227 -18.538,25.238c0,-0.556 2.925,-8.859 6.5,-18.45c3.575,-9.592 6.5,-18.742 6.5,-20.334c0,-5.573 -6.216,-8.42 -11.962,-5.477M400.432,194c-3.524,2.258 -8.056,8.278 -11.671,15.5c-2.57,5.137 -5.761,16.404 -5.761,20.345c0,2.949 2.609,3.819 4.99,1.664c3.907,-3.536 12.529,-17.187 16.083,-25.465c3.174,-7.395 4.1,-8.689 6.884,-9.622c3.216,-1.079 3.216,-1.079 0.665,-2.75c-3.37,-2.208 -7.418,-2.089 -11.19,0.328M500.005,195.904c-4.867,3.657 -13.005,13.175 -13.005,15.21c0,1.538 7.091,-1.948 11.783,-5.793c4.771,-3.909 8.207,-8.75 8.213,-11.571c0.006,-2.565 -1.21,-2.19 -6.991,2.154M455.04,196.471c-3.35,2.471 -10.406,11.496 -9.61,12.292c0.232,0.232 2.901,-0.299 5.93,-1.179c7.379,-2.145 12.509,-8.628 9.6,-12.132c-1.605,-1.934 -2.014,-1.863 -5.92,1.019M133.422,201.418c-8.244,3.59 -18.375,23.582 -18.41,36.332c-0.009,3.058 0.396,4.25 1.443,4.25c2.529,0 11.472,-12.135 16.212,-22c2.51,-5.225 4.892,-10.175 5.293,-11c0.4,-0.825 2.142,-2.464 3.871,-3.642c3.144,-2.142 3.144,-2.142 -0.245,-3.75c-4.021,-1.908 -4.207,-1.913 -8.164,-0.19"></path></g></g></svg>